<svg t="1743189211928" class="icon" viewBox="0 0 1024 1024" version="1.1" xmlns="http://www.w3.org/2000/svg" p-id="10192" width="256" height="256"><path d="M234.07557847 458.522624H90.29121264c-39.32807269 0-71.19960494-31.87153225-71.19960494-71.19960494s31.87153225-71.19960494 71.19960494-71.19960493h143.79731121c41.82653155 0 75.85994272-34.03341117 75.85994272-75.85994272V96.47910558c0-39.32807269 31.87153225-71.19960494 71.19960493-71.19960494s71.19960494 31.87153225 71.19960495 71.19960494V240.2764168c-0.01294539 120.34027773-97.91887486 218.2462072-218.27209798 218.2462072zM933.07446361 458.522624H789.29009778c-120.34027773 0-218.25915259-97.90592948-218.2591526-218.25915259V96.47910558c0-39.32807269 31.87153225-71.19960494 71.19960495-71.19960494s71.19960494 31.87153225 71.19960493 71.19960494V240.2764168c0 41.82653155 34.03341117 75.85994272 75.85994272 75.8599427h143.7973112c39.32807269 0 71.19960494 31.87153225 71.19960494 71.19960495s-31.88447763 71.18665955-71.21255031 71.18665955zM642.23055013 999.7302392c-39.32807269 0-71.19960494-31.87153225-71.19960495-71.19960493V784.73332306c0-120.34027773 97.90592948-218.25915259 218.2591526-218.25915259h143.7973112c39.32807269 0 71.19960494 31.87153225 71.19960494 71.19960494s-31.87153225 71.19960494-71.19960494 71.19960494H789.29009778c-41.82653155 0-75.85994272 34.03341117-75.85994272 75.85994271v143.79731121c0 39.31512731-31.87153225 71.19960494-71.19960493 71.19960493zM381.13512613 999.7302392c-39.32807269 0-71.19960494-31.87153225-71.19960495-71.19960493V784.73332306c0-41.82653155-34.03341117-75.85994272-75.85994271-75.85994271H90.29121264c-39.32807269 0-71.19960494-31.87153225-71.19960494-71.19960494s31.87153225-71.19960494 71.19960494-71.19960494h143.79731121c120.34027773 0 218.25915259 97.90592948 218.2591526 218.25915259v143.79731121c-0.01294539 39.31512731-31.88447763 71.19960494-71.21255032 71.19960493z" p-id="10193"></path></svg>