<svg t="1743187494520" class="icon" viewBox="0 0 1024 1024" version="1.1" xmlns="http://www.w3.org/2000/svg" p-id="2235" width="256" height="256"><path d="M925.257143 570.514286V457.874286l-100.205714-35.84c-6.582857-24.137143-16.091429-46.811429-28.525715-68.022857l46.08-95.817143-79.725714-79.725715-95.817143 45.348572c-21.211429-11.702857-43.885714-21.211429-68.022857-28.525714L563.931429 95.085714H451.291429l-35.84 100.205715c-24.137143 6.582857-46.811429 16.091429-68.022858 27.794285l-95.817142-45.348571-79.725715 79.725714 45.348572 95.817143c-11.702857 21.211429-21.211429 43.885714-28.525715 68.022857l-100.205714 35.108572v112.64l100.205714 35.84c6.582857 24.137143 16.091429 46.811429 27.794286 68.022857l-45.348571 95.817143L250.88 848.457143l95.817143-45.348572c21.211429 11.702857 43.885714 21.211429 68.022857 28.525715l35.108571 100.205714h112.64l35.84-100.205714c24.137143-6.582857 46.811429-16.091429 68.022858-27.794286l95.817142 45.348571 79.725715-79.725714-45.348572-95.817143c11.702857-21.211429 21.211429-43.885714 28.525715-68.022857l100.205714-35.108571z m-424.228572 122.148571C382.537143 692.662857 321.828571 639.268571 321.828571 521.508571s64.365714-185.782857 182.125715-185.782857 179.2 68.022857 178.468571 185.782857c0.731429 117.76-63.634286 171.885714-181.394286 171.154286z" fill="#BADBD6" p-id="2236"></path><path d="M565.394286 950.125714H452.754286c-7.314286 0-14.628571-5.12-16.822857-11.702857l-32.182858-91.428571c-19.017143-5.851429-37.302857-13.897143-54.857142-22.674286l-87.771429 41.691429c-6.582857 2.925714-15.36 2.194286-20.48-3.657143l-79.725714-80.457143c-5.12-5.12-6.582857-13.897143-3.657143-20.48l41.691428-87.771429c-8.777143-17.554286-16.822857-35.84-22.674285-54.857143l-91.428572-32.914285c-7.314286-2.925714-11.702857-9.508571-11.702857-16.822857V456.411429c0-7.314286 5.12-14.628571 11.702857-16.822858l91.428572-32.182857c5.851429-19.017143 13.897143-37.302857 22.674285-54.857143l-41.691428-87.771428c-2.925714-6.582857-1.462857-15.36 3.657143-20.48l80.457143-78.994286c5.12-5.12 13.897143-6.582857 20.48-3.657143l87.771428 41.691429c17.554286-8.777143 35.84-16.822857 54.857143-22.674286l32.914286-91.428571c2.194286-7.314286 9.508571-11.702857 16.822857-11.702857h112.64c7.314286 0 14.628571 5.12 16.822857 11.702857l32.182857 91.428571c19.017143 5.851429 37.302857 13.897143 54.857143 22.674286l87.771429-41.691429c6.582857-2.925714 15.36-1.462857 20.48 3.657143l79.725714 79.725714c5.12 5.12 6.582857 13.897143 3.657143 20.48l-41.691429 87.771429c8.777143 17.554286 16.822857 35.84 22.674286 54.857143l91.428571 32.914286c7.314286 2.194286 11.702857 9.508571 11.702857 16.822857V570.514286c0 7.314286-5.12 14.628571-11.702857 16.822857l-91.428571 32.182857c-5.851429 19.017143-13.897143 37.302857-22.674286 54.857143l41.691429 87.771428c2.925714 6.582857 2.194286 15.36-3.657143 20.48l-79.725714 79.725715c-5.12 5.12-13.897143 6.582857-20.48 3.657143l-87.771429-41.691429c-17.554286 8.777143-35.84 16.822857-54.857143 22.674286l-32.914286 91.428571c-3.657143 6.582857-10.24 11.702857-17.554285 11.702857z m-100.205715-36.571428h87.04l31.451429-87.771429c2.194286-5.12 6.582857-9.508571 11.702857-10.971428 21.942857-6.582857 43.885714-15.36 64.365714-26.331429 5.12-2.925714 10.971429-2.925714 16.091429-0.731429l84.114286 40.228572 61.44-61.44-38.765715-84.845714c-2.194286-5.12-2.194286-11.702857 0.731429-16.822858 11.702857-20.48 20.48-42.422857 27.062857-64.365714 1.462857-5.851429 5.851429-10.24 10.971429-11.702857l87.771428-31.451429V470.308571l-87.771428-31.451428c-5.12-2.194286-9.508571-6.582857-10.971429-11.702857-6.582857-22.674286-15.36-43.885714-26.331428-64.365715-2.925714-5.12-2.925714-10.971429-0.731429-16.091428l40.228571-84.114286-61.44-61.44L678.034286 241.371429c-5.12 2.194286-10.971429 2.194286-16.091429-0.731429-20.48-11.702857-42.422857-20.48-64.365714-27.062857-5.851429-1.462857-10.24-5.851429-11.702857-10.971429l-31.451429-87.771428H467.382857l-31.451428 87.771428c-2.194286 5.12-6.582857 9.508571-11.702858 10.971429-21.942857 6.582857-43.885714 15.36-64.365714 26.331428-5.12 2.925714-10.971429 2.925714-16.091428 0.731429l-84.114286-40.228571-61.44 61.44 40.228571 84.114285c2.194286 5.12 2.194286 11.702857-0.731428 16.091429-10.971429 20.48-20.48 41.691429-27.062857 64.365714-1.462857 5.851429-5.851429 10.24-10.971429 11.702857l-87.771429 31.451429v87.04l87.771429 31.451428c5.12 2.194286 9.508571 6.582857 10.971429 11.702858 6.582857 22.674286 15.36 43.885714 26.331428 64.365714 2.925714 5.12 2.925714 10.971429 0.731429 16.091428L197.485714 764.342857l61.44 61.44 84.114286-40.228571c5.12-2.194286 11.702857-2.194286 16.091429 0.731428 20.48 10.971429 41.691429 20.48 64.365714 27.062857 5.851429 1.462857 10.24 5.851429 11.702857 10.971429l29.988571 89.234286z m38.765715-202.605715c-65.828571 0-113.371429-15.36-147.017143-46.811428s-50.468571-79.725714-50.468572-143.36c0-129.462857 73.142857-204.068571 199.68-204.068572h0.731429c63.634286 0 112.64 18.285714 147.017143 54.125715 33.645714 35.108571 49.737143 85.577143 49.737143 149.211428 0 125.074286-69.485714 190.902857-199.68 190.902857z m2.194285-375.222857v18.285715c-106.788571 0-163.84 57.782857-163.84 168.228571 0 53.394286 12.434286 92.16 39.497143 117.028571 26.331429 24.868571 65.828571 36.571429 121.417143 36.571429 111.908571 0 163.84-49.005714 164.571429-153.6 0-54.857143-13.165714-96.548571-40.228572-125.074286s-67.291429-43.154286-120.685714-43.154285l-0.731429-18.285715z" fill="#263357" p-id="2237"></path><path d="M1671.23269565 708.32166643l112.18381129-39.73176676V376.44456411l-112.18381129-39.73176674V703.64734153c2.33716409 0 0 2.33716409 0 4.6743249zM1255.21773812-469.60833218l140.22976083 140.22976081c14.02297477 14.02297477 18.69730293 35.05744183 9.34864988 53.75474152l-135.55543588 285.13384985c30.38311369 58.42906646 56.09190557 119.19529698 74.78920535 182.29869161l119.19530022 42.06892757c-21.03446377-70.11488039-49.08041659-137.8926-84.13785839-200.99599136-7.01148898-14.02297477-7.01148898-30.38311369-2.33716412-44.40609166l130.88111101-275.78519674-205.67031633-208.00748039-46.74325257 25.70878879zM741.04194416 1528.66577405c-39.73176673 18.69730293-79.4635303 32.72027775-121.53246106 46.74325253l-84.13785523 231.37910826h105.17231904l100.49799725-278.12236079zM1509.96847107 1330.00694354l-130.88111094-275.78519679c-7.01148898-14.02297477-7.01148898-30.38311369 2.33716404-44.40609167 35.05744183-63.10339141 63.10339141-130.88111099 84.13785522-198.65883046l-119.19529702 42.0689276c-18.69730293 63.10339141-44.4060917 123.86962201-74.78920531 182.29869162l135.55543586 285.13384981c9.34864985 18.69730293 4.67432493 39.73176673-9.3486499 53.75474154l-140.22976402 140.22976078 49.08041667 23.37162789 203.3331554-208.00748032zM537.70878871-766.42799595l81.80069439 233.71627231c42.06892761 14.02297477 81.80069437 28.04595281 121.53246106 46.74325257l-98.16083317-280.45952488h-105.17232228z" fill="#95BCBA" p-id="2238"></path><path d="M509.805714 528.091429m-212.114285 0a212.114286 212.114286 0 1 0 424.228571 0 212.114286 212.114286 0 1 0-424.228571 0Z" fill="#FABF4D" p-id="2239"></path><path d="M509.805714 754.834286c-125.074286 0-226.742857-101.668571-226.742857-226.742857s101.668571-226.742857 226.742857-226.742858 226.742857 101.668571 226.742857 226.742858-101.668571 226.742857-226.742857 226.742857z m0-424.228572c-108.982857 0-197.485714 88.502857-197.485714 197.485715s88.502857 197.485714 197.485714 197.485714 197.485714-88.502857 197.485715-197.485714-88.502857-197.485714-197.485715-197.485715z" fill="#263357" p-id="2240"></path><path d="M6132.82859556 1392.87612389c398.491584-3376.69180811-2495.81568445-6040.29343249-5809.58776051-6040.29343288h-251.67889676c2097.32410011 1237.42122997 3481.55801731 3523.50449552 3481.5580173 6019.32017952 0 1929.53818822-734.06343665 3984.91581024-3104.03968663 5306.22999578 0 20.97325361 5075.52432451-146.81268725 5683.7483266-5285.25674242z" fill="#F2B01F" p-id="2241"></path></svg>